<mxfile host="app.diagrams.net" agent="Mozilla/5.0 (Windows NT 10.0; Win64; x64) AppleWebKit/537.36 (KHTML, like Gecko) Chrome/140.0.0.0 Safari/537.36" version="28.2.4">
  <diagram name="PÃ¡gina-1" id="5t5wFqJdT6m0e07825Pe">
    <mxGraphModel dx="2222" dy="1996" grid="1" gridSize="10" guides="1" tooltips="1" connect="1" arrows="1" fold="1" page="1" pageScale="1" pageWidth="827" pageHeight="1169" math="0" shadow="0">
      <root>
        <mxCell id="0" />
        <mxCell id="1" parent="0" />
        <mxCell id="zXwsvF_8ENHoCn_yICh1-7" style="edgeStyle=orthogonalEdgeStyle;shape=link;rounded=0;orthogonalLoop=1;jettySize=auto;html=1;exitX=0.5;exitY=0;exitDx=0;exitDy=0;entryX=1;entryY=0.5;entryDx=0;entryDy=0;strokeColor=default;align=center;verticalAlign=middle;fontFamily=Helvetica;fontSize=11;fontColor=default;labelBackgroundColor=default;endArrow=none;endFill=0;" edge="1" parent="1" source="rQHOjafWDM2BysFkpj8a-3" target="zXwsvF_8ENHoCn_yICh1-5">
          <mxGeometry relative="1" as="geometry" />
        </mxCell>
        <mxCell id="zXwsvF_8ENHoCn_yICh1-9" value="M" style="edgeLabel;html=1;align=center;verticalAlign=middle;resizable=0;points=[];fontFamily=Helvetica;fontSize=11;fontColor=default;labelBackgroundColor=default;" vertex="1" connectable="0" parent="zXwsvF_8ENHoCn_yICh1-7">
          <mxGeometry x="-0.8143" y="-2" relative="1" as="geometry">
            <mxPoint x="-142" y="-98" as="offset" />
          </mxGeometry>
        </mxCell>
        <mxCell id="rQHOjafWDM2BysFkpj8a-1" value="BANCO" style="whiteSpace=wrap;html=1;align=center;fillColor=#dae8fc;strokeColor=#6c8ebf;labelBackgroundColor=none;" parent="1" vertex="1">
          <mxGeometry x="150" y="-160.65" width="100" height="40" as="geometry" />
        </mxCell>
        <mxCell id="zXwsvF_8ENHoCn_yICh1-1" style="edgeStyle=orthogonalEdgeStyle;shape=link;rounded=0;orthogonalLoop=1;jettySize=auto;html=1;exitX=0.5;exitY=1;exitDx=0;exitDy=0;entryX=0;entryY=0.5;entryDx=0;entryDy=0;strokeColor=default;align=center;verticalAlign=middle;fontFamily=Helvetica;fontSize=11;fontColor=default;labelBackgroundColor=default;endArrow=none;endFill=0;" edge="1" parent="1" source="rQHOjafWDM2BysFkpj8a-2" target="rQHOjafWDM2BysFkpj8a-52">
          <mxGeometry relative="1" as="geometry" />
        </mxCell>
        <mxCell id="zXwsvF_8ENHoCn_yICh1-3" value="N" style="edgeLabel;html=1;align=center;verticalAlign=middle;resizable=0;points=[];fontFamily=Helvetica;fontSize=11;fontColor=default;labelBackgroundColor=default;" vertex="1" connectable="0" parent="zXwsvF_8ENHoCn_yICh1-1">
          <mxGeometry x="0.4" y="3" relative="1" as="geometry">
            <mxPoint x="201" y="-7" as="offset" />
          </mxGeometry>
        </mxCell>
        <mxCell id="zXwsvF_8ENHoCn_yICh1-4" value="M" style="edgeLabel;html=1;align=center;verticalAlign=middle;resizable=0;points=[];fontFamily=Helvetica;fontSize=11;fontColor=default;labelBackgroundColor=default;" vertex="1" connectable="0" parent="zXwsvF_8ENHoCn_yICh1-1">
          <mxGeometry x="0.5588" y="-2" relative="1" as="geometry">
            <mxPoint x="12" y="-12" as="offset" />
          </mxGeometry>
        </mxCell>
        <mxCell id="zXwsvF_8ENHoCn_yICh1-6" style="edgeStyle=orthogonalEdgeStyle;shape=link;rounded=0;orthogonalLoop=1;jettySize=auto;html=1;exitX=0.25;exitY=1;exitDx=0;exitDy=0;entryX=0;entryY=0.5;entryDx=0;entryDy=0;strokeColor=default;align=center;verticalAlign=middle;fontFamily=Helvetica;fontSize=11;fontColor=default;labelBackgroundColor=default;endArrow=none;endFill=0;" edge="1" parent="1" source="rQHOjafWDM2BysFkpj8a-2" target="zXwsvF_8ENHoCn_yICh1-5">
          <mxGeometry relative="1" as="geometry" />
        </mxCell>
        <mxCell id="zXwsvF_8ENHoCn_yICh1-8" value="N" style="edgeLabel;html=1;align=center;verticalAlign=middle;resizable=0;points=[];fontFamily=Helvetica;fontSize=11;fontColor=default;labelBackgroundColor=default;" vertex="1" connectable="0" parent="zXwsvF_8ENHoCn_yICh1-6">
          <mxGeometry x="0.79" y="1" relative="1" as="geometry">
            <mxPoint y="-9" as="offset" />
          </mxGeometry>
        </mxCell>
        <mxCell id="rQHOjafWDM2BysFkpj8a-2" value="CLIENTE" style="whiteSpace=wrap;html=1;align=center;fillColor=#dae8fc;strokeColor=#6c8ebf;labelBackgroundColor=none;" parent="1" vertex="1">
          <mxGeometry x="-260" y="-160.65" width="100" height="40" as="geometry" />
        </mxCell>
        <mxCell id="zXwsvF_8ENHoCn_yICh1-11" style="edgeStyle=orthogonalEdgeStyle;shape=connector;rounded=0;orthogonalLoop=1;jettySize=auto;html=1;exitX=0;exitY=0.5;exitDx=0;exitDy=0;entryX=1;entryY=0.5;entryDx=0;entryDy=0;strokeColor=default;align=center;verticalAlign=middle;fontFamily=Helvetica;fontSize=11;fontColor=default;labelBackgroundColor=default;endArrow=none;endFill=0;" edge="1" parent="1" source="rQHOjafWDM2BysFkpj8a-3" target="zXwsvF_8ENHoCn_yICh1-10">
          <mxGeometry relative="1" as="geometry" />
        </mxCell>
        <mxCell id="zXwsvF_8ENHoCn_yICh1-14" value="1" style="edgeLabel;html=1;align=center;verticalAlign=middle;resizable=0;points=[];fontFamily=Helvetica;fontSize=11;fontColor=default;labelBackgroundColor=default;" vertex="1" connectable="0" parent="zXwsvF_8ENHoCn_yICh1-11">
          <mxGeometry x="0.631" y="3" relative="1" as="geometry">
            <mxPoint y="-13" as="offset" />
          </mxGeometry>
        </mxCell>
        <mxCell id="rQHOjafWDM2BysFkpj8a-3" value="CONTA" style="whiteSpace=wrap;html=1;align=center;fillColor=#dae8fc;strokeColor=#6c8ebf;labelBackgroundColor=none;" parent="1" vertex="1">
          <mxGeometry x="160" y="90" width="100" height="40" as="geometry" />
        </mxCell>
        <mxCell id="rQHOjafWDM2BysFkpj8a-23" style="edgeStyle=none;shape=connector;rounded=0;orthogonalLoop=1;jettySize=auto;html=1;exitX=0.5;exitY=1;exitDx=0;exitDy=0;entryX=0.5;entryY=0;entryDx=0;entryDy=0;strokeColor=default;align=center;verticalAlign=middle;fontFamily=Helvetica;fontSize=11;fontColor=default;labelBackgroundColor=none;endArrow=none;endFill=0;" parent="1" source="rQHOjafWDM2BysFkpj8a-5" target="rQHOjafWDM2BysFkpj8a-1" edge="1">
          <mxGeometry relative="1" as="geometry" />
        </mxCell>
        <mxCell id="rQHOjafWDM2BysFkpj8a-5" value="Nome" style="ellipse;whiteSpace=wrap;html=1;align=center;fillColor=#e1d5e7;strokeColor=#9673a6;labelBackgroundColor=none;" parent="1" vertex="1">
          <mxGeometry x="150" y="-260.65" width="100" height="40" as="geometry" />
        </mxCell>
        <mxCell id="rQHOjafWDM2BysFkpj8a-22" style="edgeStyle=none;shape=connector;rounded=0;orthogonalLoop=1;jettySize=auto;html=1;exitX=0.5;exitY=1;exitDx=0;exitDy=0;entryX=0.25;entryY=0;entryDx=0;entryDy=0;strokeColor=default;align=center;verticalAlign=middle;fontFamily=Helvetica;fontSize=11;fontColor=default;labelBackgroundColor=none;endArrow=none;endFill=0;" parent="1" source="rQHOjafWDM2BysFkpj8a-6" target="rQHOjafWDM2BysFkpj8a-1" edge="1">
          <mxGeometry relative="1" as="geometry" />
        </mxCell>
        <mxCell id="rQHOjafWDM2BysFkpj8a-6" value="SwiftCode" style="ellipse;whiteSpace=wrap;html=1;align=center;fontStyle=4;fillColor=#e1d5e7;strokeColor=#9673a6;labelBackgroundColor=none;" parent="1" vertex="1">
          <mxGeometry x="30" y="-260.65" width="100" height="40" as="geometry" />
        </mxCell>
        <mxCell id="rQHOjafWDM2BysFkpj8a-24" style="edgeStyle=none;shape=connector;rounded=0;orthogonalLoop=1;jettySize=auto;html=1;exitX=0.5;exitY=1;exitDx=0;exitDy=0;entryX=0.75;entryY=0;entryDx=0;entryDy=0;strokeColor=default;align=center;verticalAlign=middle;fontFamily=Helvetica;fontSize=11;fontColor=default;labelBackgroundColor=none;endArrow=none;endFill=0;" parent="1" source="rQHOjafWDM2BysFkpj8a-7" target="rQHOjafWDM2BysFkpj8a-1" edge="1">
          <mxGeometry relative="1" as="geometry" />
        </mxCell>
        <mxCell id="rQHOjafWDM2BysFkpj8a-7" value="Morada" style="ellipse;whiteSpace=wrap;html=1;align=center;fillColor=#e1d5e7;strokeColor=#9673a6;labelBackgroundColor=none;" parent="1" vertex="1">
          <mxGeometry x="270" y="-260.65" width="100" height="40" as="geometry" />
        </mxCell>
        <mxCell id="rQHOjafWDM2BysFkpj8a-17" style="edgeStyle=none;shape=connector;rounded=0;orthogonalLoop=1;jettySize=auto;html=1;exitX=0.5;exitY=1;exitDx=0;exitDy=0;entryX=1;entryY=0;entryDx=0;entryDy=0;strokeColor=#9673a6;align=center;verticalAlign=middle;fontFamily=Helvetica;fontSize=11;fontColor=default;labelBackgroundColor=none;endArrow=none;endFill=0;fillColor=#e1d5e7;" parent="1" source="rQHOjafWDM2BysFkpj8a-10" target="rQHOjafWDM2BysFkpj8a-7" edge="1">
          <mxGeometry relative="1" as="geometry" />
        </mxCell>
        <mxCell id="rQHOjafWDM2BysFkpj8a-10" value="CodPostal" style="ellipse;whiteSpace=wrap;html=1;align=center;fillColor=#e1d5e7;strokeColor=#9673a6;labelBackgroundColor=none;" parent="1" vertex="1">
          <mxGeometry x="360" y="-340.65" width="80" height="40" as="geometry" />
        </mxCell>
        <mxCell id="rQHOjafWDM2BysFkpj8a-16" style="edgeStyle=none;shape=connector;rounded=0;orthogonalLoop=1;jettySize=auto;html=1;exitX=0.5;exitY=1;exitDx=0;exitDy=0;entryX=0.5;entryY=0;entryDx=0;entryDy=0;strokeColor=#9673a6;align=center;verticalAlign=middle;fontFamily=Helvetica;fontSize=11;fontColor=default;labelBackgroundColor=none;endArrow=none;endFill=0;fillColor=#e1d5e7;" parent="1" source="rQHOjafWDM2BysFkpj8a-11" target="rQHOjafWDM2BysFkpj8a-7" edge="1">
          <mxGeometry relative="1" as="geometry" />
        </mxCell>
        <mxCell id="rQHOjafWDM2BysFkpj8a-11" value="NumPorta" style="ellipse;whiteSpace=wrap;html=1;align=center;fillColor=#e1d5e7;strokeColor=#9673a6;labelBackgroundColor=none;" parent="1" vertex="1">
          <mxGeometry x="280" y="-340.65" width="80" height="40" as="geometry" />
        </mxCell>
        <mxCell id="rQHOjafWDM2BysFkpj8a-15" style="rounded=0;orthogonalLoop=1;jettySize=auto;html=1;exitX=0.5;exitY=1;exitDx=0;exitDy=0;entryX=0;entryY=0;entryDx=0;entryDy=0;endArrow=none;endFill=0;fillColor=#e1d5e7;strokeColor=#9673a6;labelBackgroundColor=none;" parent="1" source="rQHOjafWDM2BysFkpj8a-12" target="rQHOjafWDM2BysFkpj8a-7" edge="1">
          <mxGeometry relative="1" as="geometry" />
        </mxCell>
        <mxCell id="rQHOjafWDM2BysFkpj8a-12" value="Rua" style="ellipse;whiteSpace=wrap;html=1;align=center;fillColor=#e1d5e7;strokeColor=#9673a6;labelBackgroundColor=none;" parent="1" vertex="1">
          <mxGeometry x="200" y="-340.65" width="80" height="40" as="geometry" />
        </mxCell>
        <mxCell id="rQHOjafWDM2BysFkpj8a-18" style="edgeStyle=none;shape=connector;rounded=0;orthogonalLoop=1;jettySize=auto;html=1;exitX=0;exitY=0.5;exitDx=0;exitDy=0;entryX=1;entryY=0.5;entryDx=0;entryDy=0;strokeColor=#9673a6;align=center;verticalAlign=middle;fontFamily=Helvetica;fontSize=11;fontColor=default;labelBackgroundColor=none;endArrow=none;endFill=0;fillColor=#e1d5e7;" parent="1" target="rQHOjafWDM2BysFkpj8a-7" edge="1">
          <mxGeometry relative="1" as="geometry">
            <mxPoint x="440.00000000001273" y="-280.65" as="sourcePoint" />
          </mxGeometry>
        </mxCell>
        <mxCell id="rQHOjafWDM2BysFkpj8a-13" value="Localidade" style="ellipse;whiteSpace=wrap;html=1;align=center;fillColor=#e1d5e7;strokeColor=#9673a6;labelBackgroundColor=none;" parent="1" vertex="1">
          <mxGeometry x="440" y="-310" width="80" height="40" as="geometry" />
        </mxCell>
        <mxCell id="rQHOjafWDM2BysFkpj8a-19" style="edgeStyle=none;shape=connector;rounded=0;orthogonalLoop=1;jettySize=auto;html=1;exitX=0;exitY=0.5;exitDx=0;exitDy=0;strokeColor=#9673a6;align=center;verticalAlign=middle;fontFamily=Helvetica;fontSize=11;fontColor=default;labelBackgroundColor=none;endArrow=none;endFill=0;entryX=1;entryY=1;entryDx=0;entryDy=0;fillColor=#e1d5e7;" parent="1" target="rQHOjafWDM2BysFkpj8a-7" edge="1">
          <mxGeometry relative="1" as="geometry">
            <mxPoint x="370" y="-240.65" as="targetPoint" />
            <mxPoint x="440.00000000001273" y="-240.65" as="sourcePoint" />
          </mxGeometry>
        </mxCell>
        <mxCell id="rQHOjafWDM2BysFkpj8a-14" value="Pais" style="ellipse;whiteSpace=wrap;html=1;align=center;fillColor=#e1d5e7;strokeColor=#9673a6;labelBackgroundColor=none;" parent="1" vertex="1">
          <mxGeometry x="440" y="-270" width="80" height="40" as="geometry" />
        </mxCell>
        <mxCell id="rQHOjafWDM2BysFkpj8a-21" style="edgeStyle=none;shape=connector;rounded=0;orthogonalLoop=1;jettySize=auto;html=1;exitX=1;exitY=0.5;exitDx=0;exitDy=0;entryX=0;entryY=0.5;entryDx=0;entryDy=0;strokeColor=default;align=center;verticalAlign=middle;fontFamily=Helvetica;fontSize=11;fontColor=default;labelBackgroundColor=none;endArrow=none;endFill=0;" parent="1" source="rQHOjafWDM2BysFkpj8a-20" target="rQHOjafWDM2BysFkpj8a-1" edge="1">
          <mxGeometry relative="1" as="geometry" />
        </mxCell>
        <mxCell id="rQHOjafWDM2BysFkpj8a-20" value="CapitalSocial" style="ellipse;whiteSpace=wrap;html=1;align=center;fontFamily=Helvetica;fontSize=11;labelBackgroundColor=none;fillColor=#e1d5e7;strokeColor=#9673a6;" parent="1" vertex="1">
          <mxGeometry x="-20" y="-180.65" width="100" height="40" as="geometry" />
        </mxCell>
        <mxCell id="rQHOjafWDM2BysFkpj8a-33" style="edgeStyle=none;shape=connector;rounded=0;orthogonalLoop=1;jettySize=auto;html=1;exitX=0;exitY=0.5;exitDx=0;exitDy=0;entryX=1;entryY=1;entryDx=0;entryDy=0;strokeColor=default;align=center;verticalAlign=middle;fontFamily=Helvetica;fontSize=11;fontColor=default;labelBackgroundColor=none;endArrow=none;endFill=0;" parent="1" source="rQHOjafWDM2BysFkpj8a-26" target="rQHOjafWDM2BysFkpj8a-3" edge="1">
          <mxGeometry relative="1" as="geometry" />
        </mxCell>
        <mxCell id="rQHOjafWDM2BysFkpj8a-26" value="NumConta" style="ellipse;whiteSpace=wrap;html=1;align=center;fontStyle=4;fontFamily=Helvetica;fontSize=11;labelBackgroundColor=none;fillColor=#e1d5e7;strokeColor=#9673a6;" parent="1" vertex="1">
          <mxGeometry x="330" y="150" width="100" height="40" as="geometry" />
        </mxCell>
        <mxCell id="rQHOjafWDM2BysFkpj8a-32" style="edgeStyle=none;shape=connector;rounded=0;orthogonalLoop=1;jettySize=auto;html=1;exitX=0;exitY=0.5;exitDx=0;exitDy=0;entryX=1;entryY=0.75;entryDx=0;entryDy=0;strokeColor=default;align=center;verticalAlign=middle;fontFamily=Helvetica;fontSize=11;fontColor=default;labelBackgroundColor=none;endArrow=none;endFill=0;" parent="1" source="rQHOjafWDM2BysFkpj8a-27" target="rQHOjafWDM2BysFkpj8a-3" edge="1">
          <mxGeometry relative="1" as="geometry" />
        </mxCell>
        <mxCell id="rQHOjafWDM2BysFkpj8a-27" value="&lt;span id=&quot;docs-internal-guid-591e52e5-7fff-9c61-10f5-c246d7b948ab&quot;&gt;&lt;span style=&quot;font-size: 12pt; font-family: Calibri, sans-serif; font-variant-numeric: normal; font-variant-east-asian: normal; font-variant-alternates: normal; font-variant-position: normal; font-variant-emoji: normal; vertical-align: baseline; white-space-collapse: preserve;&quot;&gt;DataCriaÃ§Ã£o&lt;/span&gt;&lt;/span&gt;" style="ellipse;whiteSpace=wrap;html=1;align=center;fontFamily=Helvetica;fontSize=11;labelBackgroundColor=none;fillColor=#e1d5e7;strokeColor=#9673a6;" parent="1" vertex="1">
          <mxGeometry x="330" y="110" width="100" height="40" as="geometry" />
        </mxCell>
        <mxCell id="rQHOjafWDM2BysFkpj8a-31" style="edgeStyle=none;shape=connector;rounded=0;orthogonalLoop=1;jettySize=auto;html=1;exitX=0;exitY=0.5;exitDx=0;exitDy=0;entryX=1;entryY=0.25;entryDx=0;entryDy=0;strokeColor=default;align=center;verticalAlign=middle;fontFamily=Helvetica;fontSize=11;fontColor=default;labelBackgroundColor=none;endArrow=none;endFill=0;" parent="1" source="rQHOjafWDM2BysFkpj8a-28" target="rQHOjafWDM2BysFkpj8a-3" edge="1">
          <mxGeometry relative="1" as="geometry" />
        </mxCell>
        <mxCell id="rQHOjafWDM2BysFkpj8a-28" value="&lt;span id=&quot;docs-internal-guid-a5d98633-7fff-b095-d0ba-8f9cfac902e7&quot;&gt;&lt;span style=&quot;font-size: 12pt; font-family: Calibri, sans-serif; font-variant-numeric: normal; font-variant-east-asian: normal; font-variant-alternates: normal; font-variant-position: normal; font-variant-emoji: normal; vertical-align: baseline; white-space-collapse: preserve;&quot;&gt;NomeConta&lt;/span&gt;&lt;/span&gt;" style="ellipse;whiteSpace=wrap;html=1;align=center;fontFamily=Helvetica;fontSize=11;labelBackgroundColor=none;fillColor=#e1d5e7;strokeColor=#9673a6;" parent="1" vertex="1">
          <mxGeometry x="330" y="70" width="100" height="40" as="geometry" />
        </mxCell>
        <mxCell id="rQHOjafWDM2BysFkpj8a-30" style="edgeStyle=none;shape=connector;rounded=0;orthogonalLoop=1;jettySize=auto;html=1;exitX=0;exitY=0.5;exitDx=0;exitDy=0;entryX=1;entryY=0;entryDx=0;entryDy=0;strokeColor=default;align=center;verticalAlign=middle;fontFamily=Helvetica;fontSize=11;fontColor=default;labelBackgroundColor=none;endArrow=none;endFill=0;" parent="1" source="rQHOjafWDM2BysFkpj8a-29" target="rQHOjafWDM2BysFkpj8a-3" edge="1">
          <mxGeometry relative="1" as="geometry" />
        </mxCell>
        <mxCell id="rQHOjafWDM2BysFkpj8a-29" value="&lt;span id=&quot;docs-internal-guid-b7c6ddb7-7fff-e6a5-9956-a2672f7add57&quot;&gt;&lt;span style=&quot;font-size: 12pt; font-family: Calibri, sans-serif; font-variant-numeric: normal; font-variant-east-asian: normal; font-variant-alternates: normal; font-variant-position: normal; font-variant-emoji: normal; vertical-align: baseline; white-space-collapse: preserve;&quot;&gt;Saldo&lt;/span&gt;&lt;/span&gt;" style="ellipse;whiteSpace=wrap;html=1;align=center;fontFamily=Helvetica;fontSize=11;labelBackgroundColor=none;fillColor=#e1d5e7;strokeColor=#9673a6;" parent="1" vertex="1">
          <mxGeometry x="330" y="30" width="100" height="40" as="geometry" />
        </mxCell>
        <mxCell id="rQHOjafWDM2BysFkpj8a-43" style="edgeStyle=none;shape=connector;rounded=0;orthogonalLoop=1;jettySize=auto;html=1;exitX=0.5;exitY=0;exitDx=0;exitDy=0;entryX=0.5;entryY=1;entryDx=0;entryDy=0;strokeColor=default;align=center;verticalAlign=middle;fontFamily=Helvetica;fontSize=11;fontColor=default;labelBackgroundColor=none;endArrow=none;endFill=0;" parent="1" source="rQHOjafWDM2BysFkpj8a-34" target="rQHOjafWDM2BysFkpj8a-38" edge="1">
          <mxGeometry relative="1" as="geometry" />
        </mxCell>
        <mxCell id="rQHOjafWDM2BysFkpj8a-34" value="&lt;span id=&quot;docs-internal-guid-a55842dd-7fff-75ed-3698-31270797d629&quot;&gt;&lt;span style=&quot;font-size: 12pt; font-family: Calibri, sans-serif; font-variant-numeric: normal; font-variant-east-asian: normal; font-variant-alternates: normal; font-variant-position: normal; font-variant-emoji: normal; text-decoration-skip-ink: none; vertical-align: baseline; white-space-collapse: preserve;&quot;&gt;NumMovimento&lt;/span&gt;&lt;/span&gt;" style="ellipse;whiteSpace=wrap;html=1;align=center;fontStyle=4;fontFamily=Helvetica;fontSize=11;labelBackgroundColor=none;fillColor=#e1d5e7;strokeColor=#9673a6;" parent="1" vertex="1">
          <mxGeometry x="-270" y="210" width="120" height="40" as="geometry" />
        </mxCell>
        <mxCell id="rQHOjafWDM2BysFkpj8a-41" style="edgeStyle=none;shape=connector;rounded=0;orthogonalLoop=1;jettySize=auto;html=1;exitX=1;exitY=0.5;exitDx=0;exitDy=0;entryX=0;entryY=1;entryDx=0;entryDy=0;strokeColor=default;align=center;verticalAlign=middle;fontFamily=Helvetica;fontSize=11;fontColor=default;labelBackgroundColor=none;endArrow=none;endFill=0;" parent="1" source="rQHOjafWDM2BysFkpj8a-35" target="rQHOjafWDM2BysFkpj8a-38" edge="1">
          <mxGeometry relative="1" as="geometry" />
        </mxCell>
        <mxCell id="rQHOjafWDM2BysFkpj8a-35" value="&lt;span id=&quot;docs-internal-guid-e3ba0c14-7fff-d3cc-03dc-3c3a9460799f&quot;&gt;&lt;span style=&quot;font-size: 12pt; font-family: Calibri, sans-serif; font-variant-numeric: normal; font-variant-east-asian: normal; font-variant-alternates: normal; font-variant-position: normal; font-variant-emoji: normal; vertical-align: baseline; white-space-collapse: preserve;&quot;&gt;Data&lt;/span&gt;&lt;/span&gt;" style="ellipse;whiteSpace=wrap;html=1;align=center;fontFamily=Helvetica;fontSize=11;labelBackgroundColor=none;fillColor=#e1d5e7;strokeColor=#9673a6;" parent="1" vertex="1">
          <mxGeometry x="-460" y="130" width="100" height="40" as="geometry" />
        </mxCell>
        <mxCell id="rQHOjafWDM2BysFkpj8a-42" style="edgeStyle=none;shape=connector;rounded=0;orthogonalLoop=1;jettySize=auto;html=1;exitX=1;exitY=0.5;exitDx=0;exitDy=0;entryX=0;entryY=0.5;entryDx=0;entryDy=0;strokeColor=default;align=center;verticalAlign=middle;fontFamily=Helvetica;fontSize=11;fontColor=default;labelBackgroundColor=none;endArrow=none;endFill=0;" parent="1" source="rQHOjafWDM2BysFkpj8a-36" target="rQHOjafWDM2BysFkpj8a-38" edge="1">
          <mxGeometry relative="1" as="geometry" />
        </mxCell>
        <mxCell id="rQHOjafWDM2BysFkpj8a-36" value="&lt;span id=&quot;docs-internal-guid-c20807e2-7fff-051a-aee9-e4532147d8ac&quot;&gt;&lt;span style=&quot;font-size: 12pt; font-family: Calibri, sans-serif; font-variant-numeric: normal; font-variant-east-asian: normal; font-variant-alternates: normal; font-variant-position: normal; font-variant-emoji: normal; vertical-align: baseline; white-space-collapse: preserve;&quot;&gt;TipoMovimento&lt;/span&gt;&lt;/span&gt;" style="ellipse;whiteSpace=wrap;html=1;align=center;fontFamily=Helvetica;fontSize=11;labelBackgroundColor=none;fillColor=#e1d5e7;strokeColor=#9673a6;" parent="1" vertex="1">
          <mxGeometry x="-480" y="90" width="120" height="40" as="geometry" />
        </mxCell>
        <mxCell id="rQHOjafWDM2BysFkpj8a-40" style="edgeStyle=none;shape=connector;rounded=0;orthogonalLoop=1;jettySize=auto;html=1;exitX=1;exitY=0.5;exitDx=0;exitDy=0;entryX=0;entryY=0;entryDx=0;entryDy=0;strokeColor=default;align=center;verticalAlign=middle;fontFamily=Helvetica;fontSize=11;fontColor=default;labelBackgroundColor=none;endArrow=none;endFill=0;" parent="1" source="rQHOjafWDM2BysFkpj8a-37" target="rQHOjafWDM2BysFkpj8a-38" edge="1">
          <mxGeometry relative="1" as="geometry" />
        </mxCell>
        <mxCell id="rQHOjafWDM2BysFkpj8a-37" value="&lt;span id=&quot;docs-internal-guid-9ef57d0e-7fff-270a-184b-81bdf64e47de&quot;&gt;&lt;span style=&quot;font-size: 12pt; font-family: Calibri, sans-serif; font-variant-numeric: normal; font-variant-east-asian: normal; font-variant-alternates: normal; font-variant-position: normal; font-variant-emoji: normal; vertical-align: baseline; white-space-collapse: preserve;&quot;&gt;Valor&lt;/span&gt;&lt;/span&gt;" style="ellipse;whiteSpace=wrap;html=1;align=center;fontFamily=Helvetica;fontSize=11;labelBackgroundColor=none;fillColor=#e1d5e7;strokeColor=#9673a6;" parent="1" vertex="1">
          <mxGeometry x="-460" y="50" width="100" height="40" as="geometry" />
        </mxCell>
        <mxCell id="zXwsvF_8ENHoCn_yICh1-12" style="edgeStyle=orthogonalEdgeStyle;shape=link;rounded=0;orthogonalLoop=1;jettySize=auto;html=1;exitX=1;exitY=0.5;exitDx=0;exitDy=0;entryX=0;entryY=0.5;entryDx=0;entryDy=0;strokeColor=default;align=center;verticalAlign=middle;fontFamily=Helvetica;fontSize=11;fontColor=default;labelBackgroundColor=default;endArrow=none;endFill=0;" edge="1" parent="1" source="rQHOjafWDM2BysFkpj8a-38" target="zXwsvF_8ENHoCn_yICh1-10">
          <mxGeometry relative="1" as="geometry" />
        </mxCell>
        <mxCell id="zXwsvF_8ENHoCn_yICh1-13" value="N" style="edgeLabel;html=1;align=center;verticalAlign=middle;resizable=0;points=[];fontFamily=Helvetica;fontSize=11;fontColor=default;labelBackgroundColor=default;" vertex="1" connectable="0" parent="zXwsvF_8ENHoCn_yICh1-12">
          <mxGeometry x="0.5476" y="3" relative="1" as="geometry">
            <mxPoint y="-7" as="offset" />
          </mxGeometry>
        </mxCell>
        <mxCell id="rQHOjafWDM2BysFkpj8a-38" value="&lt;span id=&quot;docs-internal-guid-805f05b8-7fff-5d5b-461a-b227d375bd1f&quot;&gt;&lt;span style=&quot;font-size: 12pt; font-family: Calibri, sans-serif; font-variant-numeric: normal; font-variant-east-asian: normal; font-variant-alternates: normal; font-variant-position: normal; font-variant-emoji: normal; vertical-align: baseline; white-space-collapse: preserve;&quot;&gt;MOVIMENTOS &lt;/span&gt;&lt;/span&gt;" style="whiteSpace=wrap;html=1;align=center;fontFamily=Helvetica;fontSize=11;labelBackgroundColor=none;fillColor=#dae8fc;strokeColor=#6c8ebf;" parent="1" vertex="1">
          <mxGeometry x="-260" y="90" width="100" height="40" as="geometry" />
        </mxCell>
        <mxCell id="rQHOjafWDM2BysFkpj8a-49" style="edgeStyle=none;shape=connector;rounded=0;orthogonalLoop=1;jettySize=auto;html=1;exitX=1;exitY=1;exitDx=0;exitDy=0;entryX=0;entryY=0;entryDx=0;entryDy=0;strokeColor=default;align=center;verticalAlign=middle;fontFamily=Helvetica;fontSize=11;fontColor=default;labelBackgroundColor=none;endArrow=none;endFill=0;" parent="1" source="rQHOjafWDM2BysFkpj8a-44" target="rQHOjafWDM2BysFkpj8a-2" edge="1">
          <mxGeometry relative="1" as="geometry" />
        </mxCell>
        <mxCell id="rQHOjafWDM2BysFkpj8a-44" value="&lt;span id=&quot;docs-internal-guid-c85b7bca-7fff-246d-99fd-f68263dd0709&quot;&gt;&lt;span style=&quot;font-size: 12pt; font-family: Calibri, sans-serif; font-variant-numeric: normal; font-variant-east-asian: normal; font-variant-alternates: normal; font-variant-position: normal; font-variant-emoji: normal; text-decoration-skip-ink: none; vertical-align: baseline; white-space-collapse: preserve;&quot;&gt;NumConta&lt;/span&gt;&lt;/span&gt;" style="ellipse;whiteSpace=wrap;html=1;align=center;fontStyle=4;fontFamily=Helvetica;fontSize=11;labelBackgroundColor=none;fillColor=#e1d5e7;strokeColor=#9673a6;" parent="1" vertex="1">
          <mxGeometry x="-380" y="-240.65" width="100" height="40" as="geometry" />
        </mxCell>
        <mxCell id="rQHOjafWDM2BysFkpj8a-50" style="edgeStyle=none;shape=connector;rounded=0;orthogonalLoop=1;jettySize=auto;html=1;exitX=0.5;exitY=1;exitDx=0;exitDy=0;entryX=0.5;entryY=0;entryDx=0;entryDy=0;strokeColor=default;align=center;verticalAlign=middle;fontFamily=Helvetica;fontSize=11;fontColor=default;labelBackgroundColor=none;endArrow=none;endFill=0;" parent="1" source="rQHOjafWDM2BysFkpj8a-45" target="rQHOjafWDM2BysFkpj8a-2" edge="1">
          <mxGeometry relative="1" as="geometry" />
        </mxCell>
        <mxCell id="rQHOjafWDM2BysFkpj8a-45" value="&lt;span id=&quot;docs-internal-guid-38c76de5-7fff-466a-cc2b-dd3238450d7d&quot;&gt;&lt;span style=&quot;font-size: 12pt; font-family: Calibri, sans-serif; font-variant-numeric: normal; font-variant-east-asian: normal; font-variant-alternates: normal; font-variant-position: normal; font-variant-emoji: normal; vertical-align: baseline; white-space-collapse: preserve;&quot;&gt;DataCriaÃ§Ã£o&lt;/span&gt;&lt;/span&gt;" style="ellipse;whiteSpace=wrap;html=1;align=center;fontFamily=Helvetica;fontSize=11;labelBackgroundColor=none;fillColor=#e1d5e7;strokeColor=#9673a6;" parent="1" vertex="1">
          <mxGeometry x="-260" y="-240.65" width="100" height="40" as="geometry" />
        </mxCell>
        <mxCell id="rQHOjafWDM2BysFkpj8a-48" style="edgeStyle=none;shape=connector;rounded=0;orthogonalLoop=1;jettySize=auto;html=1;exitX=1;exitY=0;exitDx=0;exitDy=0;entryX=0;entryY=1;entryDx=0;entryDy=0;strokeColor=default;align=center;verticalAlign=middle;fontFamily=Helvetica;fontSize=11;fontColor=default;labelBackgroundColor=none;endArrow=none;endFill=0;" parent="1" source="rQHOjafWDM2BysFkpj8a-46" target="rQHOjafWDM2BysFkpj8a-2" edge="1">
          <mxGeometry relative="1" as="geometry" />
        </mxCell>
        <mxCell id="rQHOjafWDM2BysFkpj8a-46" value="&lt;span id=&quot;docs-internal-guid-856eb072-7fff-63ca-289f-0f817379f34b&quot;&gt;&lt;span style=&quot;font-size: 12pt; font-family: Calibri, sans-serif; font-variant-numeric: normal; font-variant-east-asian: normal; font-variant-alternates: normal; font-variant-position: normal; font-variant-emoji: normal; vertical-align: baseline; white-space-collapse: preserve;&quot;&gt;NomeConta&lt;/span&gt;&lt;/span&gt;" style="ellipse;whiteSpace=wrap;html=1;align=center;fontFamily=Helvetica;fontSize=11;labelBackgroundColor=none;fillColor=#e1d5e7;strokeColor=#9673a6;" parent="1" vertex="1">
          <mxGeometry x="-380" y="-80.65" width="100" height="40" as="geometry" />
        </mxCell>
        <mxCell id="rQHOjafWDM2BysFkpj8a-51" style="edgeStyle=none;shape=connector;rounded=0;orthogonalLoop=1;jettySize=auto;html=1;exitX=0.5;exitY=1;exitDx=0;exitDy=0;entryX=1;entryY=0;entryDx=0;entryDy=0;strokeColor=default;align=center;verticalAlign=middle;fontFamily=Helvetica;fontSize=11;fontColor=default;labelBackgroundColor=none;endArrow=none;endFill=0;" parent="1" source="rQHOjafWDM2BysFkpj8a-47" target="rQHOjafWDM2BysFkpj8a-2" edge="1">
          <mxGeometry relative="1" as="geometry" />
        </mxCell>
        <mxCell id="rQHOjafWDM2BysFkpj8a-47" value="&lt;span id=&quot;docs-internal-guid-3211ee36-7fff-793b-acbb-33084973df38&quot;&gt;&lt;span style=&quot;font-size: 12pt; font-family: Calibri, sans-serif; font-variant-numeric: normal; font-variant-east-asian: normal; font-variant-alternates: normal; font-variant-position: normal; font-variant-emoji: normal; vertical-align: baseline; white-space-collapse: preserve;&quot;&gt;Saldo&lt;/span&gt;&lt;/span&gt;" style="ellipse;whiteSpace=wrap;html=1;align=center;fontFamily=Helvetica;fontSize=11;labelBackgroundColor=none;fillColor=#e1d5e7;strokeColor=#9673a6;" parent="1" vertex="1">
          <mxGeometry x="-140" y="-240.65" width="100" height="40" as="geometry" />
        </mxCell>
        <mxCell id="zXwsvF_8ENHoCn_yICh1-2" style="edgeStyle=orthogonalEdgeStyle;shape=connector;rounded=0;orthogonalLoop=1;jettySize=auto;html=1;exitX=1;exitY=0.5;exitDx=0;exitDy=0;entryX=0.5;entryY=1;entryDx=0;entryDy=0;strokeColor=default;align=center;verticalAlign=middle;fontFamily=Helvetica;fontSize=11;fontColor=default;labelBackgroundColor=default;endArrow=none;endFill=0;" edge="1" parent="1" source="rQHOjafWDM2BysFkpj8a-52" target="rQHOjafWDM2BysFkpj8a-1">
          <mxGeometry relative="1" as="geometry" />
        </mxCell>
        <mxCell id="rQHOjafWDM2BysFkpj8a-52" value="&lt;span id=&quot;docs-internal-guid-afc41f89-7fff-d8c1-4d54-eb485ac69a2f&quot;&gt;&lt;span style=&quot;font-size: 12pt; font-family: Calibri, sans-serif; font-variant-numeric: normal; font-variant-east-asian: normal; font-variant-alternates: normal; font-variant-position: normal; font-variant-emoji: normal; vertical-align: baseline; white-space-collapse: preserve;&quot;&gt;PERTENCE_A &lt;/span&gt;&lt;/span&gt;" style="shape=rhombus;perimeter=rhombusPerimeter;whiteSpace=wrap;html=1;align=center;fontFamily=Helvetica;fontSize=11;labelBackgroundColor=none;fillColor=#f8cecc;strokeColor=#b85450;" parent="1" vertex="1">
          <mxGeometry x="-60" y="-100.65" width="120" height="60" as="geometry" />
        </mxCell>
        <mxCell id="zXwsvF_8ENHoCn_yICh1-5" value="CONTA_DE" style="shape=rhombus;perimeter=rhombusPerimeter;whiteSpace=wrap;html=1;align=center;fontFamily=Helvetica;fontSize=11;labelBackgroundColor=none;fillColor=#f8cecc;strokeColor=#b85450;" vertex="1" parent="1">
          <mxGeometry x="-60" y="-30" width="120" height="60" as="geometry" />
        </mxCell>
        <mxCell id="zXwsvF_8ENHoCn_yICh1-10" value="MOVIMENTOS_DE" style="shape=rhombus;perimeter=rhombusPerimeter;whiteSpace=wrap;html=1;align=center;fontFamily=Helvetica;fontSize=11;labelBackgroundColor=none;fillColor=#f8cecc;strokeColor=#b85450;" vertex="1" parent="1">
          <mxGeometry x="-60" y="40" width="120" height="60" as="geometry" />
        </mxCell>
      </root>
    </mxGraphModel>
  </diagram>
</mxfile>
